<svg xmlns="http://www.w3.org/2000/svg" viewBox="0 0 128 128" role="img" aria-label="Clash for Windows logo">
  <defs>
    <linearGradient id="body" x1="20" y1="12" x2="108" y2="116" gradientUnits="userSpaceOnUse">
      <stop offset="0" stop-color="#1d3b64"/>
      <stop offset="1" stop-color="#0d213d"/>
    </linearGradient>
    <filter id="softShadow" x="-20%" y="-20%" width="140%" height="150%">
      <feDropShadow dx="0" dy="8" stdDeviation="8" flood-color="#07111f" flood-opacity=".35"/>
    </filter>
  </defs>
  <path fill="none" stroke="#0d213d" stroke-width="5" stroke-linecap="round" d="M25 86c-16 3-21 20-7 26 12 5 30-2 43-15"/>
  <path filter="url(#softShadow)" fill="url(#body)" d="M28 116c-7 0-13-6-13-13V57c0-7 4-15 10-20L34 17c2-4 8-3 9 2l5 16c5-2 10-3 16-3s11 1 16 3l5-16c1-5 7-6 9-2l9 20c6 5 10 13 10 20v46c0 7-6 13-13 13H28Z"/>
  <circle cx="48" cy="68" r="5" fill="#f8fbff"/>
  <circle cx="80" cy="68" r="5" fill="#f8fbff"/>
  <path fill="none" stroke="#8bb7e7" stroke-width="4" stroke-linecap="round" d="M44 94c11 7 29 7 40 0"/>
  <path fill="#112a4c" opacity=".55" d="M34 32 40 21l4 15c-4-1-7-2-10-4Zm60 0-6-11-4 15c4-1 7-2 10-4Z"/>
</svg>
